<?xml version="1.0" encoding="UTF-8" standalone="no"?>
<svg
   width="162.36119"
   height="179.78188"
   version="1.1"
   id="svg18"
   sodipodi:docname="WatsonConsortia_cube_only_alternative.svg"
   inkscape:version="1.3.2 (091e20e, 2023-11-25)"
   xmlns:inkscape="http://www.inkscape.org/namespaces/inkscape"
   xmlns:sodipodi="http://sodipodi.sourceforge.net/DTD/sodipodi-0.dtd"
   xmlns="http://www.w3.org/2000/svg"
   xmlns:svg="http://www.w3.org/2000/svg">
  <defs
     id="defs18">
    <inkscape:path-effect
       effect="powermask"
       id="path-effect30"
       is_visible="true"
       lpeversion="1"
       uri="#mask-powermask-path-effect30"
       invert="false"
       hide_mask="false"
       background="true"
       background_color="#ffffffff" />
    <inkscape:path-effect
       effect="powermask"
       id="path-effect27"
       is_visible="true"
       lpeversion="1"
       uri="#mask-powermask-path-effect27"
       invert="false"
       hide_mask="false"
       background="true"
       background_color="#ffffffff" />
    <inkscape:path-effect
       effect="powermask"
       id="path-effect28"
       is_visible="true"
       lpeversion="1"
       uri="#mask-powermask-path-effect28"
       invert="false"
       hide_mask="false"
       background="true"
       background_color="#ffffffff" />
    <inkscape:path-effect
       effect="powermask"
       id="path-effect21"
       is_visible="true"
       lpeversion="1"
       uri="#mask-powermask-path-effect21"
       invert="false"
       hide_mask="false"
       background="true"
       background_color="#ffffffff" />
    <inkscape:path-effect
       effect="powermask"
       id="path-effect111"
       is_visible="true"
       lpeversion="1"
       uri="#mask-powermask-path-effect111"
       invert="false"
       hide_mask="false"
       background="true"
       background_color="#ffffffff" />
    <clipPath
       clipPathUnits="userSpaceOnUse"
       id="clipPath44">
      <rect
         style="fill:#8e6fff;fill-opacity:1;stroke-width:0.876644"
         id="rect44"
         width="125.42922"
         height="154.69604"
         x="108.70534"
         y="282.21579" />
    </clipPath>
    <mask
       maskUnits="userSpaceOnUse"
       id="mask-powermask-path-effect111">
      <path
         id="mask-powermask-path-effect111_box"
         style="fill:#ffffff;fill-opacity:1"
         d="M 9.3803613,9.7373811 H 152.65706 V 171.96086 H 9.3803613 Z" />
    </mask>
    <filter
       id="mask-powermask-path-effect111_inverse"
       inkscape:label="filtermask-powermask-path-effect111"
       style="color-interpolation-filters:sRGB"
       height="100"
       width="100"
       x="-50"
       y="-50">
      <feColorMatrix
         id="mask-powermask-path-effect111_primitive1"
         values="1"
         type="saturate"
         result="fbSourceGraphic" />
      <feColorMatrix
         id="mask-powermask-path-effect111_primitive2"
         values="-1 0 0 0 1 0 -1 0 0 1 0 0 -1 0 1 0 0 0 1 0 "
         in="fbSourceGraphic" />
    </filter>
    <clipPath
       clipPathUnits="userSpaceOnUse"
       id="clipPath44-3">
      <rect
         style="fill:#8e6fff;fill-opacity:1;stroke-width:0.876644"
         id="rect44-3"
         width="125.42922"
         height="154.69604"
         x="108.70534"
         y="282.21579" />
    </clipPath>
    <mask
       maskUnits="userSpaceOnUse"
       id="mask-powermask-path-effect21">
      <path
         id="mask-powermask-path-effect21_box"
         style="fill:#ffffff;fill-opacity:1"
         d="M 9.3803613,9.7373811 H 152.65706 V 171.96086 H 9.3803613 Z" />
      <path
         id="path21"
         style="fill:#ffffff;fill-opacity:1"
         d="M 9.3803613,9.7373811 H 152.65706 V 171.96086 H 9.3803613 Z" />
    </mask>
    <filter
       id="mask-powermask-path-effect21_inverse"
       inkscape:label="filtermask-powermask-path-effect21"
       style="color-interpolation-filters:sRGB"
       height="100"
       width="100"
       x="-50"
       y="-50">
      <feColorMatrix
         id="mask-powermask-path-effect21_primitive1"
         values="1"
         type="saturate"
         result="fbSourceGraphic" />
      <feColorMatrix
         id="mask-powermask-path-effect21_primitive2"
         values="-1 0 0 0 1 0 -1 0 0 1 0 0 -1 0 1 0 0 0 1 0 "
         in="fbSourceGraphic" />
    </filter>
    <mask
       maskUnits="userSpaceOnUse"
       id="mask-powermask-path-effect28">
      <path
         id="mask-powermask-path-effect28_box"
         style="fill:#ffffff;fill-opacity:1"
         d="M 9.3803613,9.7373811 H 152.65706 V 171.96086 H 9.3803613 Z" />
      <path
         id="path28"
         style="fill:#ffffff;fill-opacity:1"
         d="M 9.3803613,9.7373811 H 152.65706 V 171.96086 H 9.3803613 Z" />
    </mask>
    <filter
       id="mask-powermask-path-effect28_inverse"
       inkscape:label="filtermask-powermask-path-effect28"
       style="color-interpolation-filters:sRGB"
       height="100"
       width="100"
       x="-50"
       y="-50">
      <feColorMatrix
         id="mask-powermask-path-effect28_primitive1"
         values="1"
         type="saturate"
         result="fbSourceGraphic" />
      <feColorMatrix
         id="mask-powermask-path-effect28_primitive2"
         values="-1 0 0 0 1 0 -1 0 0 1 0 0 -1 0 1 0 0 0 1 0 "
         in="fbSourceGraphic" />
    </filter>
    <mask
       maskUnits="userSpaceOnUse"
       id="mask-powermask-path-effect27">
      <path
         id="mask-powermask-path-effect27_box"
         style="fill:#ffffff;fill-opacity:1"
         d="M 9.3803613,9.7373811 H 152.65706 V 171.96086 H 9.3803613 Z" />
      <path
         id="path27"
         style="fill:#ffffff;fill-opacity:1"
         d="M 9.3803613,9.7373811 H 152.65706 V 171.96086 H 9.3803613 Z" />
    </mask>
    <filter
       id="mask-powermask-path-effect27_inverse"
       inkscape:label="filtermask-powermask-path-effect27"
       style="color-interpolation-filters:sRGB"
       height="100"
       width="100"
       x="-50"
       y="-50">
      <feColorMatrix
         id="mask-powermask-path-effect27_primitive1"
         values="1"
         type="saturate"
         result="fbSourceGraphic" />
      <feColorMatrix
         id="mask-powermask-path-effect27_primitive2"
         values="-1 0 0 0 1 0 -1 0 0 1 0 0 -1 0 1 0 0 0 1 0 "
         in="fbSourceGraphic" />
    </filter>
    <mask
       maskUnits="userSpaceOnUse"
       id="mask-powermask-path-effect30">
      <path
         id="mask-powermask-path-effect30_box"
         style="fill:#ffffff;fill-opacity:1"
         d="M 9.3803613,9.7373811 H 152.65706 V 171.96086 H 9.3803613 Z" />
      <path
         id="path30"
         style="fill:#ffffff;fill-opacity:1"
         d="M 9.3803613,9.7373811 H 152.65706 V 171.96086 H 9.3803613 Z" />
    </mask>
    <filter
       id="mask-powermask-path-effect30_inverse"
       inkscape:label="filtermask-powermask-path-effect30"
       style="color-interpolation-filters:sRGB"
       height="100"
       width="100"
       x="-50"
       y="-50">
      <feColorMatrix
         id="mask-powermask-path-effect30_primitive1"
         values="1"
         type="saturate"
         result="fbSourceGraphic" />
      <feColorMatrix
         id="mask-powermask-path-effect30_primitive2"
         values="-1 0 0 0 1 0 -1 0 0 1 0 0 -1 0 1 0 0 0 1 0 "
         in="fbSourceGraphic" />
    </filter>
  </defs>
  <sodipodi:namedview
     id="namedview18"
     pagecolor="#ffffff"
     bordercolor="#000000"
     borderopacity="0.25"
     inkscape:showpageshadow="2"
     inkscape:pageopacity="0.0"
     inkscape:pagecheckerboard="0"
     inkscape:deskcolor="#d1d1d1"
     inkscape:zoom="1.4350722"
     inkscape:cx="191.62799"
     inkscape:cy="-52.610593"
     inkscape:window-width="1696"
     inkscape:window-height="1100"
     inkscape:window-x="0"
     inkscape:window-y="25"
     inkscape:window-maximized="0"
     inkscape:current-layer="g1" />
  <g
     id="g1"
     transform="translate(1.3936594,-0.69682276)">
    <g
       id="g90"
       transform="translate(48.592803,-170.81025)">
      <path
         id="path19"
         clip-path="url(#clipPath44-3)"
         style="fill:#3f00ff;fill-opacity:1"
         d="m 108.8,282.99084 c -0.0771,0.0211 -0.15335,0.0453 -0.23047,0.0664 -0.45748,0.28605 -0.91547,0.57145 -1.37304,0.85743 0.53463,-0.30769 1.06886,-0.61618 1.60351,-0.92383 z m 72.74219,15.21875 c -23.30041,12.38832 -46.50554,24.93744 -69.74219,37.42968 -1.27727,1.23132 -2.27017,2.67816 -2.76953,4.45704 -0.78197,2.78538 -0.46246,6.13918 -0.41016,9 0.008,0.41052 0.007,0.82176 0.0137,1.23242 -2.18531,0.0412 -4.37107,0.06 -6.55664,0.0898 0.0431,2.35861 0.0879,4.7172 0.13476,7.07617 0.21557,10.84476 0.28963,21.93163 -0.15039,32.76368 l -0.0137,2.98632 c 0.15759,3.272 0.25722,6.54741 0.35937,9.82032 0.0241,4.23564 0.0322,8.47633 -0.11523,12.71093 3.11826,1.82198 6.24882,3.6111 9.42578,5.27149 1.26807,0.66275 2.77772,1.33402 4.2168,1.45117 1.34333,0.10894 2.66842,-0.37918 3.86328,-0.95703 5.33718,-2.58039 10.47576,-5.84946 15.60742,-8.81445 9.22127,-5.32632 18.43702,-10.66285 27.6543,-15.9961 4.84222,-2.80269 9.69184,-5.59251 14.53125,-8.40039 2.27929,-1.32184 5.12463,-2.60746 7.08398,-4.34375 1.26377,-1.12108 2.13597,-3.08257 2.36914,-4.72851 0.26606,-1.86717 0.10195,-3.95143 0.0879,-5.8379 -0.0252,-3.3017 -0.0397,-6.60435 -0.0547,-9.90625 -0.0447,-10.37304 -0.13449,-20.74707 -0.0488,-31.11914 0.0367,-4.4123 -0.11308,-8.82207 0.14062,-13.23046 -1.93507,0.0324 -3.77024,0.4228 -5.60156,1.04687 -2.65932,0.90592 -5.86791,2.7779 -7.34375,5.26367 -3.42963,5.7757 -2.20819,14.68339 -2.18164,21.20117 0.0201,4.94087 -0.0272,9.87978 -0.0684,14.82032 -0.0342,4.12452 0.38833,8.5896 -1.5332,12.37109 -0.46975,0.92243 -1.25008,1.68908 -2.06446,2.31055 -2.47682,1.88965 -5.54992,3.26944 -8.21093,4.91211 -8.18084,5.05096 -16.44052,9.8647 -24.76954,14.67578 -5.56802,3.21576 -11.45802,7.15212 -17.5996,9.14844 -0.89453,-5.50413 -0.69978,-11.19126 -0.68946,-16.75 0.0127,-7.06021 0.0282,-14.11817 0.006,-21.17774 -0.0142,-4.10354 -0.0539,-8.21553 -0.1289,-12.31836 -0.0523,-2.86082 -0.37182,-6.21265 0.41015,-8.99805 0.65655,-2.3388 2.15815,-4.10901 4.05078,-5.5625 1.73043,-1.32919 3.88541,-2.38949 5.77735,-3.49023 4.60369,-2.67816 9.3098,-5.12885 13.92578,-7.77344 15.0614,-8.62831 30.06116,-17.37309 45.17187,-25.91601 l -0.86523,-1.02149 c -1.14845,-1.30099 -2.46529,-2.58649 -3.91211,-3.69726 z m -2.89063,39.25781 c 0,0.125 -0.002,0.25 -0.002,0.375 -0.2449,-0.0551 -0.49332,-0.1371 -0.73828,-0.27539 0.24606,-0.0386 0.49385,-0.0625 0.74023,-0.0996 z m 0.17188,32.88672 c 0.0206,1.1324 0.0115,2.26454 -0.14063,3.33203 -0.0263,0.18587 -0.0886,0.38397 -0.13086,0.57617 -0.13622,-0.20761 -0.29243,-0.4549 -0.42773,-0.66015 0.20219,-1.01128 0.3963,-2.02419 0.57422,-3.04102 0.0417,-0.064 0.0832,-0.14123 0.125,-0.20703 z m -76.14649,44.72851 c -0.001,0.007 -0.003,0.0145 -0.004,0.0215 -0.011,-0.006 -0.0222,-0.0116 -0.0332,-0.0176 0.0115,-10e-4 0.0256,-0.003 0.0371,-0.004 z"
         transform="translate(-84.316317,-80.832169)" />
      <rect
         style="fill:#3f00ff;fill-opacity:1"
         id="rect89"
         width="2.7873163"
         height="10.104021"
         x="92.85247"
         y="253.29736" />
      <rect
         style="fill:#3f00ff;fill-opacity:1"
         id="rect90"
         width="7.8393269"
         height="14.807618"
         x="90.413574"
         y="284.13205" />
    </g>
    <path
       d="m 10.717453,129.16651 c 0.488213,1.0696 1.160898,2.36454 1.917013,3.27277 0.936592,1.12501 2.64142,1.97105 3.886813,2.71547 2.801443,1.67463 5.668187,3.23997 8.507941,4.84838 7.628874,4.32119 15.254154,8.66097 22.850166,13.03844 9.408234,5.42233 18.687979,11.42693 28.301616,16.45124 1.268068,0.66275 2.776695,1.33558 4.215775,1.45273 1.343342,0.10894 2.668845,-0.37922 3.863704,-0.95707 5.33738,-2.58039 10.47572,-5.85071 15.607563,-8.81589 9.221476,-5.32633 18.437456,-10.66219 27.654926,-15.99545 4.84242,-2.80269 9.69147,-5.5919 14.53088,-8.39978 2.27948,-1.32184 5.12422,-2.60861 7.08357,-4.3449 1.26377,-1.12108 2.13533,-3.08151 2.3685,-4.72764 0.26606,-1.86718 0.10285,-3.95187 0.0886,-5.83852 -0.0252,-3.30172 -0.0388,-6.60325 -0.0538,-9.90515 -0.0447,-10.37342 -0.13518,-20.748128 -0.0499,-31.120396 0.0367,-4.412498 -0.11233,-8.820561 0.14137,-13.229142 -1.93507,0.03237 -3.77157,0.421446 -5.60289,1.045513 -2.65932,0.905926 -5.86669,2.778603 -7.34253,5.26437 -3.42963,5.775697 -2.2077,14.682163 -2.18115,21.200142 0.0201,4.940873 -0.0275,9.880443 -0.0687,14.820983 -0.0342,4.12472 0.38878,8.58937 -1.53294,12.37086 -0.46976,0.92243 -1.25157,1.69021 -2.06595,2.31168 -2.47701,1.88967 -5.54834,3.26799 -8.20954,4.91066 -8.18085,5.05116 -16.44209,9.86467 -24.771123,14.67575 -5.568216,3.21596 -11.457901,7.15332 -17.599673,9.14965 -0.894528,-5.50414 -0.698424,-11.1911 -0.688103,-16.75003 0.01268,-7.06022 0.02816,-14.1186 0.004,-21.17837 -0.01415,-4.10372 -0.05488,-8.21507 -0.129958,-12.3179 -0.05231,-2.86082 -0.371179,-6.213111 0.410794,-8.998695 0.656552,-2.338818 2.157247,-4.108336 4.049878,-5.562006 1.730433,-1.329199 3.885268,-2.389114 5.777402,-3.489855 4.603699,-2.678156 9.310453,-5.129792 13.926613,-7.774381 15.06162,-8.628504 30.0611,-17.372634 45.17203,-25.915759 l -0.86564,-1.021313 c -2.99045,-3.387632 -7.09311,-6.705629 -11.77841,-6.956829 -2.48812,-0.133535 -4.94711,0.723363 -7.17235,1.771163 -4.76088,2.241891 -9.35977,5.276393 -13.91814,7.911046 -8.90467,5.146661 -17.808743,10.294359 -26.716591,15.433492 -4.459107,2.572618 -8.985326,4.976367 -13.467761,7.497563 -2.331445,1.311422 -5.054117,2.603221 -7.038506,4.411947 -1.55334,1.415741 -2.857795,3.675756 -3.233206,5.746135 -0.451629,2.490481 -0.202164,5.286336 -0.142763,7.818017 0.09354,3.985605 0.149003,7.969285 0.228256,11.954935 0.215566,10.84496 0.288789,21.9318 -0.151231,32.76405 l -0.02961,6.01692 -3.080375,-0.65796 c -3.063035,-0.79041 -6.719396,-2.07535 -8.375887,-4.97567 -0.76144,-1.33285 -1.209349,-3.47025 -1.333705,-4.97924 -0.739114,-8.95279 -0.08061,-18.42242 -0.07248,-27.42894 0.0054,-5.90108 -0.05335,-11.802795 -0.09617,-17.703767 -0.02761,-3.813837 -0.503101,-8.401192 0.543069,-12.079357 0.428702,-1.507064 1.261819,-2.688706 2.503334,-3.643129 2.315041,-1.779634 5.13948,-3.166576 7.671705,-4.635029 4.56383,-2.646587 9.129715,-5.289857 13.696764,-7.930697 14.72458,-8.514275 29.406607,-17.190255 44.312227,-25.382988 l -2.92339,-3.47542 c -2.45264,-2.432126 -5.77742,-4.430803 -9.33243,-4.378264 -1.67184,0.02426 -3.68932,0.409872 -5.19598,1.126277 -4.23909,2.015703 -8.319264,4.66261 -12.387397,7.012375 -7.572647,4.373801 -15.14421,8.747459 -22.715094,13.122312 -6.53739,3.777706 -13.073673,7.557547 -19.615909,11.326864 -2.953526,1.701749 -7.034986,3.271032 -9.393321,5.717681 -1.203599,1.248698 -1.833281,2.748084 -2.062908,4.461135 -0.261126,1.949107 -0.114662,4.137794 -0.111263,6.109896 0.0076,4.335335 0.158886,8.6788 0.15657,13.01038 -0.0069,13.078891 -0.452195,26.232381 -0.215147,39.299171 l -5.254026,-1.44105 c -2.531421,-0.94615 -5.365932,-2.30666 -6.525655,-4.91956 -0.807569,-1.81914 -1.019297,-4.35248 -1.126715,-6.35033 -0.518832,-9.64623 0.05737,-19.613625 0.07689,-29.289841 0.01403,-6.964478 -0.575131,-14.198344 -0.17908,-21.121158 0.08793,-1.538494 0.362247,-3.024181 0.917408,-4.468003 0.79582,-2.069812 1.897634,-3.593208 3.697923,-4.900614 4.95662,-3.599679 10.958188,-6.363435 16.342576,-9.272227 4.744598,-2.563098 9.386654,-5.377826 14.058716,-8.073179 8.318342,-4.799003 16.64467,-9.581387 24.965405,-14.375428 3.150473,-1.815234 6.23221,-4.175513 9.524833,-5.646513 l -2.35359,-2.148558 c -3.023327,-2.694521 -7.040781,-6.156977 -11.346782,-5.877196 -1.568031,0.102095 -2.940414,0.613036 -4.338793,1.301002 -4.970314,2.445141 -9.758513,5.413758 -14.555563,8.187021 -7.677305,4.438511 -15.358378,8.870519 -23.037758,13.305831 -5.634594,3.254405 -11.27498,6.498528 -16.911143,9.750026 -3.044106,1.756248 -7.855284,3.834448 -10.123244,6.511613 -0.982646,1.160029 -1.542822,3.006152 -1.674582,4.501347 -0.317899,3.605392 -0.01882,7.37001 -0.04018,10.995996 -0.05494,9.329239 0.01949,18.655961 0.03663,27.985058 0.01292,7.043373 -0.102588,14.101903 -0.175213,21.145923 -0.05054,4.91126 -0.204821,9.83644 0.272741,14.72939 z"
       id="path18"
       style="fill:#250c7d;fill-opacity:1"
       mask="url(#mask-powermask-path-effect111)"
       inkscape:path-effect="#path-effect111"
       inkscape:original-d="m 10.717453,129.16651 c 0.488213,1.0696 1.160898,2.36454 1.917013,3.27277 0.936592,1.12501 2.64142,1.97105 3.886813,2.71547 2.801443,1.67463 5.668187,3.23997 8.507941,4.84838 7.628874,4.32119 15.254154,8.66097 22.850166,13.03844 9.408234,5.42233 18.687979,11.42693 28.301616,16.45124 1.268068,0.66275 2.776695,1.33558 4.215775,1.45273 1.343342,0.10894 2.668845,-0.37922 3.863704,-0.95707 5.33738,-2.58039 10.47572,-5.85071 15.607563,-8.81589 9.221476,-5.32633 18.437456,-10.66219 27.654926,-15.99545 4.84242,-2.80269 9.69147,-5.5919 14.53088,-8.39978 2.27948,-1.32184 5.12422,-2.60861 7.08357,-4.3449 1.26377,-1.12108 2.13533,-3.08151 2.3685,-4.72764 0.26606,-1.86718 0.10285,-3.95187 0.0886,-5.83852 -0.0252,-3.30172 -0.0388,-6.60325 -0.0538,-9.90515 -0.0447,-10.37342 -0.13518,-20.748128 -0.0499,-31.120396 0.0367,-4.412498 -0.11233,-8.820561 0.14137,-13.229142 -1.93507,0.03237 -3.77157,0.421446 -5.60289,1.045513 -2.65932,0.905926 -5.86669,2.778603 -7.34253,5.26437 -3.42963,5.775697 -2.2077,14.682163 -2.18115,21.200142 0.0201,4.940873 -0.0275,9.880443 -0.0687,14.820983 -0.0342,4.12472 0.38878,8.58937 -1.53294,12.37086 -0.46976,0.92243 -1.25157,1.69021 -2.06595,2.31168 -2.47701,1.88967 -5.54834,3.26799 -8.20954,4.91066 -8.18085,5.05116 -16.44209,9.86467 -24.771123,14.67575 -5.568216,3.21596 -11.457901,7.15332 -17.599673,9.14965 -0.894528,-5.50414 -0.698424,-11.1911 -0.688103,-16.75003 0.01268,-7.06022 0.02816,-14.1186 0.004,-21.17837 -0.01415,-4.10372 -0.05488,-8.21507 -0.129958,-12.3179 -0.05231,-2.86082 -0.371179,-6.213111 0.410794,-8.998695 0.656552,-2.338818 2.157247,-4.108336 4.049878,-5.562006 1.730433,-1.329199 3.885268,-2.389114 5.777402,-3.489855 4.603699,-2.678156 9.310453,-5.129792 13.926613,-7.774381 15.06162,-8.628504 30.0611,-17.372634 45.17203,-25.915759 l -0.86564,-1.021313 c -2.99045,-3.387632 -7.09311,-6.705629 -11.77841,-6.956829 -2.48812,-0.133535 -4.94711,0.723363 -7.17235,1.771163 -4.76088,2.241891 -9.35977,5.276393 -13.91814,7.911046 -8.90467,5.146661 -17.808743,10.294359 -26.716591,15.433492 -4.459107,2.572618 -8.985326,4.976367 -13.467761,7.497563 -2.331445,1.311422 -5.054117,2.603221 -7.038506,4.411947 -1.55334,1.415741 -2.857795,3.675756 -3.233206,5.746135 -0.451629,2.490481 -0.202164,5.286336 -0.142763,7.818017 0.09354,3.985605 0.149003,7.969285 0.228256,11.954935 0.215566,10.84496 0.288789,21.9318 -0.151231,32.76405 l -0.02961,6.01692 -3.080375,-0.65796 c -3.063035,-0.79041 -6.719396,-2.07535 -8.375887,-4.97567 -0.76144,-1.33285 -1.209349,-3.47025 -1.333705,-4.97924 -0.739114,-8.95279 -0.08061,-18.42242 -0.07248,-27.42894 0.0054,-5.90108 -0.05335,-11.802795 -0.09617,-17.703767 -0.02761,-3.813837 -0.503101,-8.401192 0.543069,-12.079357 0.428702,-1.507064 1.261819,-2.688706 2.503334,-3.643129 2.315041,-1.779634 5.13948,-3.166576 7.671705,-4.635029 4.56383,-2.646587 9.129715,-5.289857 13.696764,-7.930697 14.72458,-8.514275 29.406607,-17.190255 44.312227,-25.382988 l -2.92339,-3.47542 c -2.45264,-2.432126 -5.77742,-4.430803 -9.33243,-4.378264 -1.67184,0.02426 -3.68932,0.409872 -5.19598,1.126277 -4.23909,2.015703 -8.319264,4.66261 -12.387397,7.012375 -7.572647,4.373801 -15.14421,8.747459 -22.715094,13.122312 -6.53739,3.777706 -13.073673,7.557547 -19.615909,11.326864 -2.953526,1.701749 -7.034986,3.271032 -9.393321,5.717681 -1.203599,1.248698 -1.833281,2.748084 -2.062908,4.461135 -0.261126,1.949107 -0.114662,4.137794 -0.111263,6.109896 0.0076,4.335335 0.158886,8.6788 0.15657,13.01038 -0.0069,13.078891 -0.452195,26.232381 -0.215147,39.299171 l -5.254026,-1.44105 c -2.531421,-0.94615 -5.365932,-2.30666 -6.525655,-4.91956 -0.807569,-1.81914 -1.019297,-4.35248 -1.126715,-6.35033 -0.518832,-9.64623 0.05737,-19.613625 0.07689,-29.289841 0.01403,-6.964478 -0.575131,-14.198344 -0.17908,-21.121158 0.08793,-1.538494 0.362247,-3.024181 0.917408,-4.468003 0.79582,-2.069812 1.897634,-3.593208 3.697923,-4.900614 4.95662,-3.599679 10.958188,-6.363435 16.342576,-9.272227 4.744598,-2.563098 9.386654,-5.377826 14.058716,-8.073179 8.318342,-4.799003 16.64467,-9.581387 24.965405,-14.375428 3.150473,-1.815234 6.23221,-4.175513 9.524833,-5.646513 l -2.35359,-2.148558 c -3.023327,-2.694521 -7.040781,-6.156977 -11.346782,-5.877196 -1.568031,0.102095 -2.940414,0.613036 -4.338793,1.301002 -4.970314,2.445141 -9.758513,5.413758 -14.555563,8.187021 -7.677305,4.438511 -15.358378,8.870519 -23.037758,13.305831 -5.634594,3.254405 -11.27498,6.498528 -16.911143,9.750026 -3.044106,1.756248 -7.855284,3.834448 -10.123244,6.511613 -0.982646,1.160029 -1.542822,3.006152 -1.674582,4.501347 -0.317899,3.605392 -0.01882,7.37001 -0.04018,10.995996 -0.05494,9.329239 0.01949,18.655961 0.03663,27.985058 0.01292,7.043373 -0.102588,14.101903 -0.175213,21.145923 -0.05054,4.91126 -0.204821,9.83644 0.272741,14.72939 z"
       sodipodi:nodetypes="cscccscccccccccccccscccccccccscscccccccccccccccccccccsccccccccccccccccccccccccccccccccccccc" />
    <path
       id="path20"
       mask="url(#mask-powermask-path-effect21)"
       style="fill:#3e11ba;fill-opacity:1"
       d="m 144.60631,45.682416 c -2.34587,1.349689 -4.68889,2.705533 -7.03711,4.050781 -4.61615,2.64457 -9.32213,5.097262 -13.92578,7.775391 -1.33814,0.778459 -2.80228,1.541243 -4.16016,2.388672 h -0.28711 c -7.22933,4.165296 -14.45464,8.339404 -21.693356,12.486328 -4.616148,2.644568 -9.324078,5.095302 -13.927735,7.773437 -1.892116,1.100732 -4.046928,2.161045 -5.777343,3.490235 -1.892613,1.453658 -3.392283,3.2237 -4.048829,5.5625 -0.781964,2.785557 -0.464409,6.137233 -0.412109,8.998047 0.07508,4.102823 0.116712,8.214703 0.130859,12.318363 0.0091,2.66748 -0.0021,5.33482 -0.002,8.00195 -0.02079,0.0316 -0.04297,0.0627 -0.04297,0.10351 v 24.38868 22.96875 2.00195 c 0.916825,0.50764 1.832456,1.01834 2.757812,1.50195 1.26805,0.66275 2.775787,1.33598 4.214844,1.45313 1.343329,0.10894 2.66844,-0.37918 3.863281,-0.95703 5.33731,-2.58034 10.477602,-5.85123 15.609375,-8.81641 9.221351,-5.32625 18.436951,-10.66286 27.654291,-15.99609 4.84237,-2.80264 9.69192,-5.59254 14.53125,-8.40039 2.27948,-1.32179 5.12269,-2.60749 7.08204,-4.34375 1.26374,-1.12108 2.13597,-3.08239 2.36914,-4.72852 0.26606,-1.86713 0.10399,-3.95124 0.0898,-5.83789 -0.0252,-3.30167 -0.0377,-6.60245 -0.0527,-9.9043 -0.0447,-10.37329 -0.13592,-20.748953 -0.0508,-31.121091 0.0367,-4.412446 -0.11112,-8.819987 0.14258,-13.228516 -1.93499,0.03237 -3.77219,0.420868 -5.60351,1.044922 -2.65927,0.905913 -5.86601,2.777944 -7.3418,5.263672 -3.42958,5.775619 -2.20819,14.683279 -2.18164,21.201172 0.0201,4.940861 -0.0291,9.879801 -0.0703,14.820311 -0.0342,4.12467 0.38851,8.58966 -1.53321,12.3711 -0.46976,0.9224 -1.25202,1.69103 -2.0664,2.3125 -2.47696,1.88964 -5.54779,3.26748 -8.20899,4.91015 -8.18072,5.05106 -16.44257,9.86478 -24.77148,14.67578 -5.568143,3.21591 -11.45792,7.15216 -17.599609,9.14844 -0.894515,-5.50406 -0.697821,-11.19115 -0.6875,-16.75 0.01268,-7.06009 0.02813,-14.11804 0.0039,-21.17773 -0.01415,-4.10367 -0.05578,-8.21556 -0.130859,-12.31836 -0.0523,-2.86077 -0.369856,-6.212505 0.412109,-8.99805 0.656542,-2.338792 2.156223,-4.108856 4.048828,-5.5625 1.73041,-1.329186 3.885236,-2.389507 5.777344,-3.490235 4.603642,-2.678117 9.311607,-5.128887 13.927737,-7.773437 15.06139,-8.6284 30.06118,-17.372995 45.17187,-25.916016 l -0.86718,-1.021484 c -1.50712,-1.70729 -3.30198,-3.383953 -5.30664,-4.669922 z"
       transform="translate(0.03357484,-0.03003928)" />
  </g>
</svg>
