<?xml version="1.0" encoding="UTF-8" standalone="no"?>
<svg
   width="678"
   height="181"
   version="1.1"
   id="svg18"
   sodipodi:docname="logo.svg"
   inkscape:version="1.3.2 (091e20e, 2023-11-25)"
   xmlns:inkscape="http://www.inkscape.org/namespaces/inkscape"
   xmlns:sodipodi="http://sodipodi.sourceforge.net/DTD/sodipodi-0.dtd"
   xmlns="http://www.w3.org/2000/svg"
   xmlns:svg="http://www.w3.org/2000/svg">
  <defs
     id="defs18">
    <inkscape:path-effect
       effect="powermask"
       id="path-effect30"
       is_visible="true"
       lpeversion="1"
       uri="#mask-powermask-path-effect30"
       invert="false"
       hide_mask="false"
       background="true"
       background_color="#ffffffff" />
    <inkscape:path-effect
       effect="powermask"
       id="path-effect27"
       is_visible="true"
       lpeversion="1"
       uri="#mask-powermask-path-effect27"
       invert="false"
       hide_mask="false"
       background="true"
       background_color="#ffffffff" />
    <inkscape:path-effect
       effect="powermask"
       id="path-effect28"
       is_visible="true"
       lpeversion="1"
       uri="#mask-powermask-path-effect28"
       invert="false"
       hide_mask="false"
       background="true"
       background_color="#ffffffff" />
    <inkscape:path-effect
       effect="powermask"
       id="path-effect21"
       is_visible="true"
       lpeversion="1"
       uri="#mask-powermask-path-effect21"
       invert="false"
       hide_mask="false"
       background="true"
       background_color="#ffffffff" />
    <inkscape:path-effect
       effect="powermask"
       id="path-effect111"
       is_visible="true"
       lpeversion="1"
       uri="#mask-powermask-path-effect111"
       invert="false"
       hide_mask="false"
       background="true"
       background_color="#ffffffff" />
    <clipPath
       clipPathUnits="userSpaceOnUse"
       id="clipPath44">
      <rect
         style="fill:#8e6fff;fill-opacity:1;stroke-width:0.876644"
         id="rect44"
         width="125.42922"
         height="154.69604"
         x="108.70534"
         y="282.21579" />
    </clipPath>
    <mask
       maskUnits="userSpaceOnUse"
       id="mask-powermask-path-effect111">
      <path
         id="mask-powermask-path-effect111_box"
         style="fill:#ffffff;fill-opacity:1"
         d="M 9.3803613,9.7373811 H 152.65706 V 171.96086 H 9.3803613 Z" />
    </mask>
    <filter
       id="mask-powermask-path-effect111_inverse"
       inkscape:label="filtermask-powermask-path-effect111"
       style="color-interpolation-filters:sRGB"
       height="100"
       width="100"
       x="-50"
       y="-50">
      <feColorMatrix
         id="mask-powermask-path-effect111_primitive1"
         values="1"
         type="saturate"
         result="fbSourceGraphic" />
      <feColorMatrix
         id="mask-powermask-path-effect111_primitive2"
         values="-1 0 0 0 1 0 -1 0 0 1 0 0 -1 0 1 0 0 0 1 0 "
         in="fbSourceGraphic" />
    </filter>
    <clipPath
       clipPathUnits="userSpaceOnUse"
       id="clipPath44-3">
      <rect
         style="fill:#8e6fff;fill-opacity:1;stroke-width:0.876644"
         id="rect44-3"
         width="125.42922"
         height="154.69604"
         x="108.70534"
         y="282.21579" />
    </clipPath>
    <mask
       maskUnits="userSpaceOnUse"
       id="mask-powermask-path-effect21">
      <path
         id="mask-powermask-path-effect21_box"
         style="fill:#ffffff;fill-opacity:1"
         d="M 9.3803613,9.7373811 H 152.65706 V 171.96086 H 9.3803613 Z" />
      <path
         id="path21"
         style="fill:#ffffff;fill-opacity:1"
         d="M 9.3803613,9.7373811 H 152.65706 V 171.96086 H 9.3803613 Z" />
    </mask>
    <filter
       id="mask-powermask-path-effect21_inverse"
       inkscape:label="filtermask-powermask-path-effect21"
       style="color-interpolation-filters:sRGB"
       height="100"
       width="100"
       x="-50"
       y="-50">
      <feColorMatrix
         id="mask-powermask-path-effect21_primitive1"
         values="1"
         type="saturate"
         result="fbSourceGraphic" />
      <feColorMatrix
         id="mask-powermask-path-effect21_primitive2"
         values="-1 0 0 0 1 0 -1 0 0 1 0 0 -1 0 1 0 0 0 1 0 "
         in="fbSourceGraphic" />
    </filter>
    <mask
       maskUnits="userSpaceOnUse"
       id="mask-powermask-path-effect28">
      <path
         id="mask-powermask-path-effect28_box"
         style="fill:#ffffff;fill-opacity:1"
         d="M 9.3803613,9.7373811 H 152.65706 V 171.96086 H 9.3803613 Z" />
      <path
         id="path28"
         style="fill:#ffffff;fill-opacity:1"
         d="M 9.3803613,9.7373811 H 152.65706 V 171.96086 H 9.3803613 Z" />
    </mask>
    <filter
       id="mask-powermask-path-effect28_inverse"
       inkscape:label="filtermask-powermask-path-effect28"
       style="color-interpolation-filters:sRGB"
       height="100"
       width="100"
       x="-50"
       y="-50">
      <feColorMatrix
         id="mask-powermask-path-effect28_primitive1"
         values="1"
         type="saturate"
         result="fbSourceGraphic" />
      <feColorMatrix
         id="mask-powermask-path-effect28_primitive2"
         values="-1 0 0 0 1 0 -1 0 0 1 0 0 -1 0 1 0 0 0 1 0 "
         in="fbSourceGraphic" />
    </filter>
    <mask
       maskUnits="userSpaceOnUse"
       id="mask-powermask-path-effect27">
      <path
         id="mask-powermask-path-effect27_box"
         style="fill:#ffffff;fill-opacity:1"
         d="M 9.3803613,9.7373811 H 152.65706 V 171.96086 H 9.3803613 Z" />
      <path
         id="path27"
         style="fill:#ffffff;fill-opacity:1"
         d="M 9.3803613,9.7373811 H 152.65706 V 171.96086 H 9.3803613 Z" />
    </mask>
    <filter
       id="mask-powermask-path-effect27_inverse"
       inkscape:label="filtermask-powermask-path-effect27"
       style="color-interpolation-filters:sRGB"
       height="100"
       width="100"
       x="-50"
       y="-50">
      <feColorMatrix
         id="mask-powermask-path-effect27_primitive1"
         values="1"
         type="saturate"
         result="fbSourceGraphic" />
      <feColorMatrix
         id="mask-powermask-path-effect27_primitive2"
         values="-1 0 0 0 1 0 -1 0 0 1 0 0 -1 0 1 0 0 0 1 0 "
         in="fbSourceGraphic" />
    </filter>
    <mask
       maskUnits="userSpaceOnUse"
       id="mask-powermask-path-effect30">
      <path
         id="mask-powermask-path-effect30_box"
         style="fill:#ffffff;fill-opacity:1"
         d="M 9.3803613,9.7373811 H 152.65706 V 171.96086 H 9.3803613 Z" />
      <path
         id="path30"
         style="fill:#ffffff;fill-opacity:1"
         d="M 9.3803613,9.7373811 H 152.65706 V 171.96086 H 9.3803613 Z" />
    </mask>
    <filter
       id="mask-powermask-path-effect30_inverse"
       inkscape:label="filtermask-powermask-path-effect30"
       style="color-interpolation-filters:sRGB"
       height="100"
       width="100"
       x="-50"
       y="-50">
      <feColorMatrix
         id="mask-powermask-path-effect30_primitive1"
         values="1"
         type="saturate"
         result="fbSourceGraphic" />
      <feColorMatrix
         id="mask-powermask-path-effect30_primitive2"
         values="-1 0 0 0 1 0 -1 0 0 1 0 0 -1 0 1 0 0 0 1 0 "
         in="fbSourceGraphic" />
    </filter>
  </defs>
  <sodipodi:namedview
     id="namedview18"
     pagecolor="#ffffff"
     bordercolor="#000000"
     borderopacity="0.25"
     inkscape:showpageshadow="2"
     inkscape:pageopacity="0.0"
     inkscape:pagecheckerboard="0"
     inkscape:deskcolor="#d1d1d1"
     inkscape:zoom="1.4350722"
     inkscape:cx="326.81283"
     inkscape:cy="128.91337"
     inkscape:window-width="3440"
     inkscape:window-height="1387"
     inkscape:window-x="0"
     inkscape:window-y="25"
     inkscape:window-maximized="0"
     inkscape:current-layer="g25" />
  <path
     fill="#1c095e"
     d="m 601.23556,147.745 2.021,-0.174 c 1.002,1.259 0.428,15.551 0.412,18.208 l -1.056,0.764 c -0.678,-0.152 -0.838,-0.296 -1.352,-0.764 z"
     id="path2" />
  <path
     fill="#1c095e"
     d="m 545.39972,149.644 -0.417,0.066 c -1.44,0.185 -3.87,0.381 -4.99,-0.484 l -0.009,-0.955 0.179,-0.138 c 1.067,-0.723 6.887,-0.555 8.259,-0.277 1.794,-0.047 3.536,-0.083 5.323,0.133 0.193,0.852 0.178,0.998 -0.107,1.826 -1.824,-0.001 -3.927,0.117 -5.723,-0.2 0.438,1.442 0.655,14.957 0.071,16.182 -0.298,0.624 -0.674,0.607 -1.294,0.809 -0.146,-0.081 -0.488,-0.22 -0.595,-0.331 -0.999,-1.026 0.633,-13.541 -0.416,-16.03 l -0.236,-0.519 z"
     id="path3" />
  <path
     fill="#1c095e"
     d="m 176.222,147.729 c 1.397,-0.284 3.388,-0.429 4.763,-0.045 1.187,0.33 2.372,0.981 2.956,2.046 l -0.4,0.993 c -1.143,0.418 -2.233,-0.776 -3.454,-1.093 -1.335,-0.345 -2.583,0.053 -3.744,0.738 -1.298,0.765 -2.1,2.216 -2.458,3.636 -0.561,2.226 -0.763,5.68 0.511,7.686 0.821,1.294 2.076,2.422 3.617,2.744 1,0.209 1.928,0.069 2.793,-0.477 1.017,-0.255 1.855,-0.888 2.875,-1.165 0.606,0.452 0.555,0.618 0.725,1.332 -0.223,0.484 -0.5,0.774 -0.939,1.065 -1.905,1.259 -4.061,1.769 -6.322,1.293 -1.864,-0.393 -3.654,-1.65 -4.677,-3.255 -1.615,-2.534 -1.87,-6.45 -1.228,-9.331 0.669,-3.001 2.504,-4.597 4.982,-6.167 z"
     id="path4" />
  <path
     fill="#1c095e"
     d="m 359.9154,147.745 c 2.873,-0.568 5.104,-0.205 7.606,1.274 0.322,0.806 0.214,0.894 -0.096,1.704 -1.065,0.341 -1.467,-0.261 -2.442,-0.687 -1.1,-0.48 -2.469,-0.798 -3.63,-0.325 -0.998,0.406 -1.675,1.157 -2.066,2.168 -1.107,2.866 7.812,4.469 9.032,7.134 l 0.065,0.148 c 0.142,0.315 0.255,0.604 0.316,0.946 0.263,1.471 -0.089,3 -0.971,4.2 -1.35,1.836 -3.141,2.066 -5.266,2.391 -1.981,0.076 -4.143,-0.643 -5.622,-1.964 -0.599,-0.535 -0.664,-0.633 -0.713,-1.437 l 1.13,-0.722 c 1.249,0.758 3.158,1.763 4.617,1.912 1.093,0.111 2.301,-0.018 3.183,-0.73 0.74,-0.596 1.126,-1.448 1.224,-2.373 0.269,-2.546 -7.176,-4.243 -8.739,-6.298 -0.667,-0.878 -0.853,-2.451 -0.681,-3.52 0.301,-1.868 1.617,-2.792 3.053,-3.821 z"
     id="path5" />
  <path
     fill="#1c095e"
     d="m 657.069,147.745 c 0.857,-0.096 1.793,-0.293 2.576,0.158 0.699,0.404 5.798,16.159 6.266,18.041 l -0.423,0.603 -1.158,-0.204 c -1.559,-1.274 -1.871,-3.315 -2.402,-5.203 -0.916,-0.665 -2.339,-0.396 -3.475,-0.38 l -3.583,-0.146 c 0.21,1.412 -0.884,4.159 -1.675,5.33 -0.692,0.372 -1.139,0.629 -1.932,0.462 -0.663,-1.622 4.955,-15.632 5.806,-18.661 z m 0.806,2.977 c 0.183,1.785 -2.507,7.347 -1.656,8.127 l 2.234,-0.032 2.235,0.101 0.353,-0.419 -2.18,-7.611 z"
     id="path6" />
  <path
     fill="#1c095e"
     d="m 305.68321,163.195 c 1.315,-2.943 0.558,-8.462 0.577,-11.821 0.006,-1.141 -0.177,-2.542 0.398,-3.565 0.829,-0.26 0.989,-0.379 1.798,-0.064 0.25,2.554 0.685,16.531 -0.331,17.937 l -0.05,0.839 c -0.68,0.018 -1.477,0.121 -2.059,-0.288 -0.449,-0.317 -1.079,-1.707 -1.382,-2.218 -1.574,-2.65 -3.108,-5.356 -4.617,-8.046 -0.924,-1.646 -1.56,-3.527 -3.127,-4.687 0.281,0.799 0.493,1.575 0.57,2.421 0.286,3.153 0.124,6.522 0.069,9.691 -0.01,0.542 0.137,2.103 -0.058,2.55 -0.071,0.162 -0.365,0.439 -0.486,0.584 -0.753,-0.059 -0.879,-0.107 -1.472,-0.584 -0.79,-5.831 -0.266,-12.289 -0.386,-18.2 l 1.693,-0.136 c 0.398,0.206 0.769,0.472 1.077,0.799 1.324,1.405 7.881,12.449 7.845,14.041 z"
     id="path7" />
  <g
     id="g112"
     transform="translate(-7.8994361)">
    <path
       fill="#1c095e"
       d="m 496.942,160.495 c 1.572,0.847 2.669,3.746 3.579,5.284 l -0.395,0.585 c -0.907,0.016 -1.587,0.136 -2.317,-0.544 -1.259,-1.173 -1.589,-3.203 -2.925,-4.391 0.611,-0.111 1.195,-0.242 1.816,-0.139 l 0.113,0.022 z"
       id="path1" />
    <path
       fill="#1c095e"
       d="m 487.419,147.574 8.044,0.315 c 1.268,0.116 3.01,0.782 3.81,1.798 0.797,1.012 1.06,2.821 0.88,4.07 -0.369,2.567 -2.013,3.356 -3.865,4.742 0.433,0.694 0.62,1.176 0.654,1.996 l -0.129,0.817 -0.113,-0.022 c -0.621,-0.103 -1.205,0.028 -1.816,0.139 0.071,-0.641 -0.57,-1.752 -0.986,-2.24 -0.698,-0.819 -2.027,-0.648 -3.041,-0.736 -1.267,0.959 0.055,5.986 -0.993,7.787 l -1.324,0.35 c -1.142,-1.616 -0.515,-11.814 -0.515,-14.603 0,-1.151 0.212,-2.729 -0.277,-3.779 z m 2.853,2.156 c 0.045,1.838 0.502,5.255 -0.522,6.778 2.123,0.04 4.683,0.399 6.569,-0.733 l 0.211,-0.419 c 0.679,-0.667 1.302,-1.297 1.341,-2.312 0.031,-0.806 -0.287,-1.471 -0.841,-2.024 -1.697,-1.692 -4.514,-1.225 -6.758,-1.29 z"
       id="path8" />
  </g>
  <path
     fill="#1c095e"
     d="m 236.8656,147.744 c 2.372,-0.449 4.809,-0.466 6.92,0.816 1.66,1.009 3.084,2.811 3.519,4.727 0.723,3.18 0.555,7.139 -1.25,9.924 -1.248,1.926 -2.532,2.717 -4.74,3.182 -0.948,0.379 -2.343,0.28 -3.329,0.071 -2.08,-0.441 -3.386,-1.461 -4.52,-3.249 -1.836,-2.894 -2.036,-6.279 -1.295,-9.546 0.632,-2.787 2.365,-4.456 4.695,-5.925 z m 0.936,1.985 c -2.133,1.749 -3.118,3.366 -3.412,6.173 -0.224,2.148 0.06,4.885 1.474,6.625 0.771,0.949 2.093,1.861 3.34,1.973 0.516,0.046 1.206,0.026 1.667,-0.209 1.502,-0.354 2.23,-1.076 3.023,-2.365 1.313,-2.133 1.561,-5.101 0.964,-7.483 -0.422,-1.682 -1.264,-3.343 -2.815,-4.243 -1.358,-0.788 -2.751,-0.767 -4.241,-0.471 z"
     id="path9" />
  <path
     fill="#1c095e"
     d="m 421.20229,147.745 c 2.408,-0.49 5.028,-0.434 7.143,0.929 1.912,1.232 3.061,3.05 3.5,5.264 0.652,3.281 0.352,6.785 -1.564,9.613 -1.095,1.616 -2.41,2.367 -4.297,2.735 -1.201,0.456 -2.451,0.435 -3.703,0.189 -1.727,-0.339 -3.344,-1.495 -4.308,-2.956 -1.811,-2.744 -2.188,-6.256 -1.511,-9.423 0.686,-3.208 2.129,-4.639 4.74,-6.351 z m 1.276,1.985 c -1.864,1.152 -2.763,2.108 -3.263,4.275 -0.556,2.415 -0.701,5.878 0.675,8.061 0.695,1.102 1.991,2.13 3.278,2.405 0.535,0.114 1.306,0.053 1.832,-0.089 1.831,-0.507 2.754,-1.44 3.676,-3.085 1.168,-2.083 0.97,-5.469 0.315,-7.664 -0.472,-1.582 -1.459,-2.933 -2.918,-3.726 -1.107,-0.602 -2.399,-0.366 -3.595,-0.177 z"
     id="path10" />
  <path
     fill="#1C095E"
     d="M397.243 25.3133C399.325 25.0241 401.607 25.1852 403.711 25.1698C407.679 25.1406 411.647 25.1113 415.616 25.0825L415.794 25.4277C416.442 26.9594 416.032 29.9217 416.036 31.6774C416.048 36.5131 416.051 41.3489 416.039 46.1845C416.034 48.0583 416.395 50.6887 415.659 52.377L435.124 52.3148C435.337 52.5875 435.573 52.9486 435.643 53.2923C436.26 56.3537 435.732 60.7025 435.706 63.8804C435.696 65.0659 435.929 66.7683 435.251 67.7559C433.158 67.3773 430.665 67.6164 428.522 67.6175C424.187 67.6199 419.855 67.6377 415.521 67.5157C416.626 69.1286 416.031 73.9655 416.025 75.964C416.002 83.4261 415.435 91.3963 416.238 98.8165C416.539 101.602 417.445 104.798 419.74 106.604C423.443 109.518 430.568 108.254 434.931 107.761C435.127 108.048 435.301 108.359 435.356 108.707C435.568 110.048 435.65 111.869 434.826 112.999C435.052 113.282 435.294 113.648 435.372 114.007C435.722 115.603 435.763 120.071 434.946 121.4L434.546 121.641C427.893 124.228 416.451 125.237 409.746 122.284C397.428 116.859 397.615 105.123 397.622 93.6026C397.626 87.7386 397.633 81.8745 397.627 76.0105C397.624 73.9753 398.119 69.9816 397.391 68.1586L397.161 67.6232L397.117 67.5384L387.053 67.7801C387.263 67.4612 387.488 67.0561 387.556 66.6742C387.776 65.4419 387.64 63.8808 387.65 62.6125C387.669 60.1679 388.311 54.3498 387.058 52.3975L397.129 52.3697L397.367 51.85C398.029 50.2418 397.642 47.3441 397.648 45.5206C397.663 40.9286 397.659 36.3361 397.639 31.7441C397.631 29.7144 397.948 27.211 397.243 25.3133Z"
     id="path12" />
  <path
     fill="#1C095E"
     d="M466.994 51.4533L471.569 51.2084C479.102 51.0186 486.912 52.6626 494.023 55.0921C495.414 55.5674 497.299 55.9807 498.383 57.0116L498.481 57.5718C498.575 58.7614 493.574 69.3836 492.549 70.4867L492.492 70.4325C491.594 69.7193 489.458 69.2097 488.339 68.8638C482.178 66.9592 475.875 65.6433 469.39 65.8801C466.899 65.971 463.842 66.7502 462.116 68.6375C461.195 69.645 460.677 70.7184 460.758 72.0995C460.823 73.2142 461.157 74.3014 461.999 75.0739C463.606 76.5478 466.438 77.4525 468.492 78.0829C474.265 79.8547 480.273 80.6933 486.011 82.6355C489.801 83.9183 493.623 85.8361 496.607 88.5394C500.276 91.8641 501.665 96.4468 501.906 101.266C502.182 106.795 500.436 111.79 496.677 115.891C490.68 122.434 481.708 123.689 473.325 124.026C462.869 124.388 452.245 122.127 443.005 117.147L443.519 116.405C445.24 113.605 446.653 110.503 448.115 107.561C448.696 106.391 449.712 104.97 449.397 103.63C451.905 104.197 454.337 105.427 456.761 106.287C462.072 108.173 467.546 109.086 473.174 109.31C476.643 109.448 481.115 109.123 483.761 106.627C484.997 105.461 485.537 104.084 485.595 102.412C483.889 97.1254 475.84 96.0216 471.132 94.9262C468.05 94.2093 464.958 93.4564 461.939 92.5054C458.361 91.3784 454.236 89.4745 451.277 87.1127C447.671 84.2358 445.152 79.9467 444.646 75.3328C444.048 69.8853 445.551 64.3545 449.039 60.0907C453.562 54.5622 460.038 52.1562 466.994 51.4533Z"
     id="path13" />
  <path
     fill="#1C095E"
     d="M634.074 51.454C641.392 50.8589 648.803 51.3976 655.318 55.0576C660.173 57.7845 664.045 62.5779 665.525 67.9749C666.612 71.9378 667.224 75.952 667.514 80.0469C668.133 88.7941 667.679 97.8485 667.667 106.627C667.661 111.569 668.155 116.885 667.736 121.77C667.694 122.257 667.477 122.741 667.238 123.161C665.26 122.892 662.966 123.098 660.952 123.096C656.936 123.094 652.924 123.076 648.91 123.247C649.211 122.838 649.476 122.324 649.535 121.813C649.694 120.427 649.515 118.828 649.516 117.418C649.518 114.241 649.524 111.064 649.529 107.887C649.537 102.354 649.54 96.8208 649.54 91.2876C649.54 87.5354 649.701 83.7133 649.154 79.9928C648.604 76.2564 647.154 72.5412 644.003 70.238C639.564 66.9923 633.605 67.5558 628.497 68.3298C624.86 69.3374 621.645 70.8365 618.693 73.2294L618.728 73.4052C619.317 76.5165 618.861 80.4936 618.861 83.6977C618.859 91.4418 618.86 99.1859 618.863 106.93C618.865 110.772 618.862 114.614 618.879 118.456C618.884 119.721 619.173 121.194 619.05 122.431C619.021 122.727 618.88 122.98 618.717 123.222C616.838 122.883 614.562 123.108 612.628 123.106C608.406 123.101 604.185 123.094 599.964 123.222C600.204 122.944 600.443 122.597 600.528 122.235C600.917 120.584 600.571 118.252 600.572 116.512C600.576 111.378 600.585 106.244 600.591 101.109C600.604 90.3778 600.615 79.6463 600.609 68.9148C600.607 63.971 600.986 58.6815 600.576 53.7706C600.537 53.2998 600.313 52.8246 600.078 52.4221L618.427 52.3703C618.602 52.6214 618.751 52.8857 618.821 53.1871C619.126 54.5079 618.909 55.8815 618.174 57.0052C619.807 56.4348 621.219 55.3758 622.755 54.5854C626.393 52.7128 630.048 52.0112 634.074 51.454Z"
     id="path14" />
  <path
     fill="#1C095E"
     d="M545.051 51.454L547.122 51.3113C558.127 50.766 568.372 54.2026 576.532 61.6815C583.706 68.2574 587.444 77.5366 587.863 87.1288C588.26 96.2178 584.347 105.21 578.25 111.826C572.017 118.59 562 123.442 552.778 123.812C543.276 124.882 532.939 121.852 525.324 116.126C518.173 110.75 512.6 102.261 511.394 93.3012C510.123 83.861 511.907 74.4631 517.746 66.7933C524.77 57.5671 533.687 52.9948 545.051 51.454ZM547.865 67.6682C541.59 68.533 536.539 70.9294 532.637 76.0607C529.417 80.2951 528.324 85.5013 529.05 90.724C529.695 95.3711 532.531 100.385 536.306 103.227C540.571 106.439 544.818 107.793 550.13 107.612C555.421 107.497 560.76 105.211 564.467 101.361C567.835 97.862 570.058 92.6284 569.944 87.7515C569.811 82.0383 567.685 77.1077 563.518 73.174C559.496 69.3759 554.058 67.469 548.542 67.6367L547.865 67.6682Z"
     id="path15" />
  <path
     fill="#1C095E"
     d="M334.799 51.4537C343.682 50.6786 351.574 52.6216 359.4 56.7731L359.63 56.3155C359.935 55.042 359.528 53.5482 358.84 52.4767L377.3 52.2839L377.542 52.8318C377.639 53.0765 377.72 53.321 377.764 53.5815C378.046 55.2379 377.811 57.2975 377.812 58.9997C377.814 63.0382 377.801 67.0767 377.791 71.1152C377.757 85.1498 377.759 99.1845 377.775 113.219C377.778 115.461 377.754 117.708 377.793 119.95C377.807 120.744 378.111 121.828 377.951 122.575C377.91 122.764 377.793 122.951 377.686 123.108L358.979 123.177C359.211 122.901 359.42 122.574 359.511 122.222C359.807 121.074 359.725 119.076 359.135 118.064C357.847 119.601 354.837 120.613 352.952 121.169C351.875 122.385 346.813 123.289 345.151 123.552C336.295 124.953 326.149 123.034 318.836 117.693C311.187 112.108 306.049 103.445 304.63 94.0779C303.149 84.3038 304.863 73.3889 310.886 65.324C317.063 57.0524 324.698 52.9235 334.799 51.4537ZM341.033 67.6681C334.96 68.2583 329.902 70.3044 325.956 75.0971C322.537 79.2501 321.29 84.547 321.818 89.8453C322.307 94.7446 324.793 99.7332 328.67 102.851C332.14 105.64 335.69 106.82 340.04 107.458C346.662 107.905 353.879 106.338 359.08 102.011L359.292 101.503C359.414 101.233 359.751 100.696 359.778 100.427C359.901 99.1945 359.566 97.4737 359.561 96.1665C359.541 90.7445 359.547 85.3222 359.547 79.9002C359.547 78.3164 359.906 75.5953 359.369 74.1405L359.134 73.6448C358.56 72.2475 355.439 70.7535 354.093 70.1938C349.917 68.4579 345.587 67.3407 341.033 67.6681Z"
     id="path16" />
  <path
     fill="#1C095E"
     d="M305.026 31.6006L305.879 31.7765L306 32.2623C297.858 53.7544 289.321 75.1606 280.785 96.5007C278.711 101.686 276.665 106.898 274.686 112.12C273.456 115.366 272.344 118.78 270.891 121.929C270.678 122.39 270.359 122.743 269.965 123.061L261.927 123.14C262 122.822 262.065 122.488 262.018 122.162C261.835 120.869 260.887 119.254 260.375 118.03C258.743 114.133 257.001 110.285 255.338 106.401C251.304 96.9796 247.283 87.5531 243.219 78.1444C241.417 73.9732 239.795 69.6543 237.819 65.5687C237.397 64.6954 236.921 64.0081 236.137 63.4193C236.186 63.6967 236.219 63.9851 236.173 64.2657C235.912 65.883 234.746 67.9097 234.087 69.4453C232.498 73.1445 230.923 76.8493 229.341 80.5515C225.424 89.7222 221.447 98.8673 217.529 108.037C215.568 112.627 213.768 117.345 211.654 121.863C211.41 122.384 211.069 122.746 210.608 123.09L202.77 123.238C202.93 122.79 202.948 122.421 202.817 121.959C202.165 119.649 201.046 117.354 200.179 115.109C198.291 110.219 196.362 105.347 194.417 100.479C189.267 87.5849 184.261 74.6366 179.097 61.7468L167.125 31.7087L187.167 31.7361C187.42 31.9263 187.639 32.1367 187.8 32.4125C188.5 33.6061 188.952 35.3978 189.478 36.7271C191.246 41.1934 192.817 45.7513 194.495 50.2531C197.314 57.8191 200.101 65.3998 202.939 72.9592C204.466 77.0238 206.231 81.1187 207.557 85.2434C207.726 85.7715 207.715 86.2566 207.58 86.7942L208.433 85.8008C209.294 84.5877 209.878 82.758 210.492 81.3948C211.954 78.1453 213.395 74.8854 214.875 71.6439C219.198 62.1786 223.438 52.6703 227.702 43.178C229.253 39.7269 231.043 36.3088 232.511 32.8391C232.673 32.4567 232.656 32.0875 232.59 31.6852L240.178 31.7381C240.477 31.987 240.752 32.2615 240.975 32.5821C242.752 35.141 243.896 38.5846 245.175 41.4359C247.767 47.2107 250.382 52.9715 252.943 58.7605C256.829 67.5444 261.359 76.2811 264.838 85.2126C265.063 85.7903 265.085 86.2889 264.968 86.8973C265.283 86.5889 265.618 86.2489 265.855 85.8734C266.487 84.871 266.776 83.3721 267.156 82.2499C267.877 80.1171 268.69 78.0078 269.476 75.8981C271.104 71.5328 285.995 33.1135 285.682 31.6186L305.026 31.6006Z"
     id="path17" />
  <g
     id="g25">
    <g
       id="g90"
       transform="translate(48.592803,-170.81025)">
      <path
         id="path19"
         clip-path="url(#clipPath44-3)"
         style="fill:#3f00ff;fill-opacity:1"
         d="m 108.8,282.99084 c -0.0771,0.0211 -0.15335,0.0453 -0.23047,0.0664 -0.45748,0.28605 -0.91547,0.57145 -1.37304,0.85743 0.53463,-0.30769 1.06886,-0.61618 1.60351,-0.92383 z m 72.74219,15.21875 c -23.30041,12.38832 -46.50554,24.93744 -69.74219,37.42968 -1.27727,1.23132 -2.27017,2.67816 -2.76953,4.45704 -0.78197,2.78538 -0.46246,6.13918 -0.41016,9 0.008,0.41052 0.007,0.82176 0.0137,1.23242 -2.18531,0.0412 -4.37107,0.06 -6.55664,0.0898 0.0431,2.35861 0.0879,4.7172 0.13476,7.07617 0.21557,10.84476 0.28963,21.93163 -0.15039,32.76368 l -0.0137,2.98632 c 0.15759,3.272 0.25722,6.54741 0.35937,9.82032 0.0241,4.23564 0.0322,8.47633 -0.11523,12.71093 3.11826,1.82198 6.24882,3.6111 9.42578,5.27149 1.26807,0.66275 2.77772,1.33402 4.2168,1.45117 1.34333,0.10894 2.66842,-0.37918 3.86328,-0.95703 5.33718,-2.58039 10.47576,-5.84946 15.60742,-8.81445 9.22127,-5.32632 18.43702,-10.66285 27.6543,-15.9961 4.84222,-2.80269 9.69184,-5.59251 14.53125,-8.40039 2.27929,-1.32184 5.12463,-2.60746 7.08398,-4.34375 1.26377,-1.12108 2.13597,-3.08257 2.36914,-4.72851 0.26606,-1.86717 0.10195,-3.95143 0.0879,-5.8379 -0.0252,-3.3017 -0.0397,-6.60435 -0.0547,-9.90625 -0.0447,-10.37304 -0.13449,-20.74707 -0.0488,-31.11914 0.0367,-4.4123 -0.11308,-8.82207 0.14062,-13.23046 -1.93507,0.0324 -3.77024,0.4228 -5.60156,1.04687 -2.65932,0.90592 -5.86791,2.7779 -7.34375,5.26367 -3.42963,5.7757 -2.20819,14.68339 -2.18164,21.20117 0.0201,4.94087 -0.0272,9.87978 -0.0684,14.82032 -0.0342,4.12452 0.38833,8.5896 -1.5332,12.37109 -0.46975,0.92243 -1.25008,1.68908 -2.06446,2.31055 -2.47682,1.88965 -5.54992,3.26944 -8.21093,4.91211 -8.18084,5.05096 -16.44052,9.8647 -24.76954,14.67578 -5.56802,3.21576 -11.45802,7.15212 -17.5996,9.14844 -0.89453,-5.50413 -0.69978,-11.19126 -0.68946,-16.75 0.0127,-7.06021 0.0282,-14.11817 0.006,-21.17774 -0.0142,-4.10354 -0.0539,-8.21553 -0.1289,-12.31836 -0.0523,-2.86082 -0.37182,-6.21265 0.41015,-8.99805 0.65655,-2.3388 2.15815,-4.10901 4.05078,-5.5625 1.73043,-1.32919 3.88541,-2.38949 5.77735,-3.49023 4.60369,-2.67816 9.3098,-5.12885 13.92578,-7.77344 15.0614,-8.62831 30.06116,-17.37309 45.17187,-25.91601 l -0.86523,-1.02149 c -1.14845,-1.30099 -2.46529,-2.58649 -3.91211,-3.69726 z m -2.89063,39.25781 c 0,0.125 -0.002,0.25 -0.002,0.375 -0.2449,-0.0551 -0.49332,-0.1371 -0.73828,-0.27539 0.24606,-0.0386 0.49385,-0.0625 0.74023,-0.0996 z m 0.17188,32.88672 c 0.0206,1.1324 0.0115,2.26454 -0.14063,3.33203 -0.0263,0.18587 -0.0886,0.38397 -0.13086,0.57617 -0.13622,-0.20761 -0.29243,-0.4549 -0.42773,-0.66015 0.20219,-1.01128 0.3963,-2.02419 0.57422,-3.04102 0.0417,-0.064 0.0832,-0.14123 0.125,-0.20703 z m -76.14649,44.72851 c -0.001,0.007 -0.003,0.0145 -0.004,0.0215 -0.011,-0.006 -0.0222,-0.0116 -0.0332,-0.0176 0.0115,-10e-4 0.0256,-0.003 0.0371,-0.004 z"
         transform="translate(-84.316317,-80.832169)" />
      <rect
         style="fill:#3f00ff;fill-opacity:1"
         id="rect89"
         width="2.7873163"
         height="10.104021"
         x="92.85247"
         y="253.29736" />
      <rect
         style="fill:#3f00ff;fill-opacity:1"
         id="rect90"
         width="7.8393269"
         height="14.807618"
         x="90.413574"
         y="284.13205" />
    </g>
    <path
       d="m 10.717453,129.16651 c 0.488213,1.0696 1.160898,2.36454 1.917013,3.27277 0.936592,1.12501 2.64142,1.97105 3.886813,2.71547 2.801443,1.67463 5.668187,3.23997 8.507941,4.84838 7.628874,4.32119 15.254154,8.66097 22.850166,13.03844 9.408234,5.42233 18.687979,11.42693 28.301616,16.45124 1.268068,0.66275 2.776695,1.33558 4.215775,1.45273 1.343342,0.10894 2.668845,-0.37922 3.863704,-0.95707 5.33738,-2.58039 10.47572,-5.85071 15.607563,-8.81589 9.221476,-5.32633 18.437456,-10.66219 27.654926,-15.99545 4.84242,-2.80269 9.69147,-5.5919 14.53088,-8.39978 2.27948,-1.32184 5.12422,-2.60861 7.08357,-4.3449 1.26377,-1.12108 2.13533,-3.08151 2.3685,-4.72764 0.26606,-1.86718 0.10285,-3.95187 0.0886,-5.83852 -0.0252,-3.30172 -0.0388,-6.60325 -0.0538,-9.90515 -0.0447,-10.37342 -0.13518,-20.748128 -0.0499,-31.120396 0.0367,-4.412498 -0.11233,-8.820561 0.14137,-13.229142 -1.93507,0.03237 -3.77157,0.421446 -5.60289,1.045513 -2.65932,0.905926 -5.86669,2.778603 -7.34253,5.26437 -3.42963,5.775697 -2.2077,14.682163 -2.18115,21.200142 0.0201,4.940873 -0.0275,9.880443 -0.0687,14.820983 -0.0342,4.12472 0.38878,8.58937 -1.53294,12.37086 -0.46976,0.92243 -1.25157,1.69021 -2.06595,2.31168 -2.47701,1.88967 -5.54834,3.26799 -8.20954,4.91066 -8.18085,5.05116 -16.44209,9.86467 -24.771123,14.67575 -5.568216,3.21596 -11.457901,7.15332 -17.599673,9.14965 -0.894528,-5.50414 -0.698424,-11.1911 -0.688103,-16.75003 0.01268,-7.06022 0.02816,-14.1186 0.004,-21.17837 -0.01415,-4.10372 -0.05488,-8.21507 -0.129958,-12.3179 -0.05231,-2.86082 -0.371179,-6.213111 0.410794,-8.998695 0.656552,-2.338818 2.157247,-4.108336 4.049878,-5.562006 1.730433,-1.329199 3.885268,-2.389114 5.777402,-3.489855 4.603699,-2.678156 9.310453,-5.129792 13.926613,-7.774381 15.06162,-8.628504 30.0611,-17.372634 45.17203,-25.915759 l -0.86564,-1.021313 c -2.99045,-3.387632 -7.09311,-6.705629 -11.77841,-6.956829 -2.48812,-0.133535 -4.94711,0.723363 -7.17235,1.771163 -4.76088,2.241891 -9.35977,5.276393 -13.91814,7.911046 -8.90467,5.146661 -17.808743,10.294359 -26.716591,15.433492 -4.459107,2.572618 -8.985326,4.976367 -13.467761,7.497563 -2.331445,1.311422 -5.054117,2.603221 -7.038506,4.411947 -1.55334,1.415741 -2.857795,3.675756 -3.233206,5.746135 -0.451629,2.490481 -0.202164,5.286336 -0.142763,7.818017 0.09354,3.985605 0.149003,7.969285 0.228256,11.954935 0.215566,10.84496 0.288789,21.9318 -0.151231,32.76405 l -0.02961,6.01692 -3.080375,-0.65796 c -3.063035,-0.79041 -6.719396,-2.07535 -8.375887,-4.97567 -0.76144,-1.33285 -1.209349,-3.47025 -1.333705,-4.97924 -0.739114,-8.95279 -0.08061,-18.42242 -0.07248,-27.42894 0.0054,-5.90108 -0.05335,-11.802795 -0.09617,-17.703767 -0.02761,-3.813837 -0.503101,-8.401192 0.543069,-12.079357 0.428702,-1.507064 1.261819,-2.688706 2.503334,-3.643129 2.315041,-1.779634 5.13948,-3.166576 7.671705,-4.635029 4.56383,-2.646587 9.129715,-5.289857 13.696764,-7.930697 14.72458,-8.514275 29.406607,-17.190255 44.312227,-25.382988 l -2.92339,-3.47542 c -2.45264,-2.432126 -5.77742,-4.430803 -9.33243,-4.378264 -1.67184,0.02426 -3.68932,0.409872 -5.19598,1.126277 -4.23909,2.015703 -8.319264,4.66261 -12.387397,7.012375 -7.572647,4.373801 -15.14421,8.747459 -22.715094,13.122312 -6.53739,3.777706 -13.073673,7.557547 -19.615909,11.326864 -2.953526,1.701749 -7.034986,3.271032 -9.393321,5.717681 -1.203599,1.248698 -1.833281,2.748084 -2.062908,4.461135 -0.261126,1.949107 -0.114662,4.137794 -0.111263,6.109896 0.0076,4.335335 0.158886,8.6788 0.15657,13.01038 -0.0069,13.078891 -0.452195,26.232381 -0.215147,39.299171 l -5.254026,-1.44105 c -2.531421,-0.94615 -5.365932,-2.30666 -6.525655,-4.91956 -0.807569,-1.81914 -1.019297,-4.35248 -1.126715,-6.35033 -0.518832,-9.64623 0.05737,-19.613625 0.07689,-29.289841 0.01403,-6.964478 -0.575131,-14.198344 -0.17908,-21.121158 0.08793,-1.538494 0.362247,-3.024181 0.917408,-4.468003 0.79582,-2.069812 1.897634,-3.593208 3.697923,-4.900614 4.95662,-3.599679 10.958188,-6.363435 16.342576,-9.272227 4.744598,-2.563098 9.386654,-5.377826 14.058716,-8.073179 8.318342,-4.799003 16.64467,-9.581387 24.965405,-14.375428 3.150473,-1.815234 6.23221,-4.175513 9.524833,-5.646513 l -2.35359,-2.148558 c -3.023327,-2.694521 -7.040781,-6.156977 -11.346782,-5.877196 -1.568031,0.102095 -2.940414,0.613036 -4.338793,1.301002 -4.970314,2.445141 -9.758513,5.413758 -14.555563,8.187021 -7.677305,4.438511 -15.358378,8.870519 -23.037758,13.305831 -5.634594,3.254405 -11.27498,6.498528 -16.911143,9.750026 -3.044106,1.756248 -7.855284,3.834448 -10.123244,6.511613 -0.982646,1.160029 -1.542822,3.006152 -1.674582,4.501347 -0.317899,3.605392 -0.01882,7.37001 -0.04018,10.995996 -0.05494,9.329239 0.01949,18.655961 0.03663,27.985058 0.01292,7.043373 -0.102588,14.101903 -0.175213,21.145923 -0.05054,4.91126 -0.204821,9.83644 0.272741,14.72939 z"
       id="path18"
       style="fill:#250c7d;fill-opacity:1"
       mask="url(#mask-powermask-path-effect111)"
       inkscape:path-effect="#path-effect111"
       inkscape:original-d="m 10.717453,129.16651 c 0.488213,1.0696 1.160898,2.36454 1.917013,3.27277 0.936592,1.12501 2.64142,1.97105 3.886813,2.71547 2.801443,1.67463 5.668187,3.23997 8.507941,4.84838 7.628874,4.32119 15.254154,8.66097 22.850166,13.03844 9.408234,5.42233 18.687979,11.42693 28.301616,16.45124 1.268068,0.66275 2.776695,1.33558 4.215775,1.45273 1.343342,0.10894 2.668845,-0.37922 3.863704,-0.95707 5.33738,-2.58039 10.47572,-5.85071 15.607563,-8.81589 9.221476,-5.32633 18.437456,-10.66219 27.654926,-15.99545 4.84242,-2.80269 9.69147,-5.5919 14.53088,-8.39978 2.27948,-1.32184 5.12422,-2.60861 7.08357,-4.3449 1.26377,-1.12108 2.13533,-3.08151 2.3685,-4.72764 0.26606,-1.86718 0.10285,-3.95187 0.0886,-5.83852 -0.0252,-3.30172 -0.0388,-6.60325 -0.0538,-9.90515 -0.0447,-10.37342 -0.13518,-20.748128 -0.0499,-31.120396 0.0367,-4.412498 -0.11233,-8.820561 0.14137,-13.229142 -1.93507,0.03237 -3.77157,0.421446 -5.60289,1.045513 -2.65932,0.905926 -5.86669,2.778603 -7.34253,5.26437 -3.42963,5.775697 -2.2077,14.682163 -2.18115,21.200142 0.0201,4.940873 -0.0275,9.880443 -0.0687,14.820983 -0.0342,4.12472 0.38878,8.58937 -1.53294,12.37086 -0.46976,0.92243 -1.25157,1.69021 -2.06595,2.31168 -2.47701,1.88967 -5.54834,3.26799 -8.20954,4.91066 -8.18085,5.05116 -16.44209,9.86467 -24.771123,14.67575 -5.568216,3.21596 -11.457901,7.15332 -17.599673,9.14965 -0.894528,-5.50414 -0.698424,-11.1911 -0.688103,-16.75003 0.01268,-7.06022 0.02816,-14.1186 0.004,-21.17837 -0.01415,-4.10372 -0.05488,-8.21507 -0.129958,-12.3179 -0.05231,-2.86082 -0.371179,-6.213111 0.410794,-8.998695 0.656552,-2.338818 2.157247,-4.108336 4.049878,-5.562006 1.730433,-1.329199 3.885268,-2.389114 5.777402,-3.489855 4.603699,-2.678156 9.310453,-5.129792 13.926613,-7.774381 15.06162,-8.628504 30.0611,-17.372634 45.17203,-25.915759 l -0.86564,-1.021313 c -2.99045,-3.387632 -7.09311,-6.705629 -11.77841,-6.956829 -2.48812,-0.133535 -4.94711,0.723363 -7.17235,1.771163 -4.76088,2.241891 -9.35977,5.276393 -13.91814,7.911046 -8.90467,5.146661 -17.808743,10.294359 -26.716591,15.433492 -4.459107,2.572618 -8.985326,4.976367 -13.467761,7.497563 -2.331445,1.311422 -5.054117,2.603221 -7.038506,4.411947 -1.55334,1.415741 -2.857795,3.675756 -3.233206,5.746135 -0.451629,2.490481 -0.202164,5.286336 -0.142763,7.818017 0.09354,3.985605 0.149003,7.969285 0.228256,11.954935 0.215566,10.84496 0.288789,21.9318 -0.151231,32.76405 l -0.02961,6.01692 -3.080375,-0.65796 c -3.063035,-0.79041 -6.719396,-2.07535 -8.375887,-4.97567 -0.76144,-1.33285 -1.209349,-3.47025 -1.333705,-4.97924 -0.739114,-8.95279 -0.08061,-18.42242 -0.07248,-27.42894 0.0054,-5.90108 -0.05335,-11.802795 -0.09617,-17.703767 -0.02761,-3.813837 -0.503101,-8.401192 0.543069,-12.079357 0.428702,-1.507064 1.261819,-2.688706 2.503334,-3.643129 2.315041,-1.779634 5.13948,-3.166576 7.671705,-4.635029 4.56383,-2.646587 9.129715,-5.289857 13.696764,-7.930697 14.72458,-8.514275 29.406607,-17.190255 44.312227,-25.382988 l -2.92339,-3.47542 c -2.45264,-2.432126 -5.77742,-4.430803 -9.33243,-4.378264 -1.67184,0.02426 -3.68932,0.409872 -5.19598,1.126277 -4.23909,2.015703 -8.319264,4.66261 -12.387397,7.012375 -7.572647,4.373801 -15.14421,8.747459 -22.715094,13.122312 -6.53739,3.777706 -13.073673,7.557547 -19.615909,11.326864 -2.953526,1.701749 -7.034986,3.271032 -9.393321,5.717681 -1.203599,1.248698 -1.833281,2.748084 -2.062908,4.461135 -0.261126,1.949107 -0.114662,4.137794 -0.111263,6.109896 0.0076,4.335335 0.158886,8.6788 0.15657,13.01038 -0.0069,13.078891 -0.452195,26.232381 -0.215147,39.299171 l -5.254026,-1.44105 c -2.531421,-0.94615 -5.365932,-2.30666 -6.525655,-4.91956 -0.807569,-1.81914 -1.019297,-4.35248 -1.126715,-6.35033 -0.518832,-9.64623 0.05737,-19.613625 0.07689,-29.289841 0.01403,-6.964478 -0.575131,-14.198344 -0.17908,-21.121158 0.08793,-1.538494 0.362247,-3.024181 0.917408,-4.468003 0.79582,-2.069812 1.897634,-3.593208 3.697923,-4.900614 4.95662,-3.599679 10.958188,-6.363435 16.342576,-9.272227 4.744598,-2.563098 9.386654,-5.377826 14.058716,-8.073179 8.318342,-4.799003 16.64467,-9.581387 24.965405,-14.375428 3.150473,-1.815234 6.23221,-4.175513 9.524833,-5.646513 l -2.35359,-2.148558 c -3.023327,-2.694521 -7.040781,-6.156977 -11.346782,-5.877196 -1.568031,0.102095 -2.940414,0.613036 -4.338793,1.301002 -4.970314,2.445141 -9.758513,5.413758 -14.555563,8.187021 -7.677305,4.438511 -15.358378,8.870519 -23.037758,13.305831 -5.634594,3.254405 -11.27498,6.498528 -16.911143,9.750026 -3.044106,1.756248 -7.855284,3.834448 -10.123244,6.511613 -0.982646,1.160029 -1.542822,3.006152 -1.674582,4.501347 -0.317899,3.605392 -0.01882,7.37001 -0.04018,10.995996 -0.05494,9.329239 0.01949,18.655961 0.03663,27.985058 0.01292,7.043373 -0.102588,14.101903 -0.175213,21.145923 -0.05054,4.91126 -0.204821,9.83644 0.272741,14.72939 z"
       sodipodi:nodetypes="cscccscccccccccccccscccccccccscscccccccccccccccccccccsccccccccccccccccccccccccccccccccccccc" />
    <path
       id="path20"
       mask="url(#mask-powermask-path-effect21)"
       style="fill:#3e11ba;fill-opacity:1"
       d="m 144.60631,45.682416 c -2.34587,1.349689 -4.68889,2.705533 -7.03711,4.050781 -4.61615,2.64457 -9.32213,5.097262 -13.92578,7.775391 -1.33814,0.778459 -2.80228,1.541243 -4.16016,2.388672 h -0.28711 c -7.22933,4.165296 -14.45464,8.339404 -21.693356,12.486328 -4.616148,2.644568 -9.324078,5.095302 -13.927735,7.773437 -1.892116,1.100732 -4.046928,2.161045 -5.777343,3.490235 -1.892613,1.453658 -3.392283,3.2237 -4.048829,5.5625 -0.781964,2.785557 -0.464409,6.137233 -0.412109,8.998047 0.07508,4.102823 0.116712,8.214703 0.130859,12.318363 0.0091,2.66748 -0.0021,5.33482 -0.002,8.00195 -0.02079,0.0316 -0.04297,0.0627 -0.04297,0.10351 v 24.38868 22.96875 2.00195 c 0.916825,0.50764 1.832456,1.01834 2.757812,1.50195 1.26805,0.66275 2.775787,1.33598 4.214844,1.45313 1.343329,0.10894 2.66844,-0.37918 3.863281,-0.95703 5.33731,-2.58034 10.477602,-5.85123 15.609375,-8.81641 9.221351,-5.32625 18.436951,-10.66286 27.654291,-15.99609 4.84237,-2.80264 9.69192,-5.59254 14.53125,-8.40039 2.27948,-1.32179 5.12269,-2.60749 7.08204,-4.34375 1.26374,-1.12108 2.13597,-3.08239 2.36914,-4.72852 0.26606,-1.86713 0.10399,-3.95124 0.0898,-5.83789 -0.0252,-3.30167 -0.0377,-6.60245 -0.0527,-9.9043 -0.0447,-10.37329 -0.13592,-20.748953 -0.0508,-31.121091 0.0367,-4.412446 -0.11112,-8.819987 0.14258,-13.228516 -1.93499,0.03237 -3.77219,0.420868 -5.60351,1.044922 -2.65927,0.905913 -5.86601,2.777944 -7.3418,5.263672 -3.42958,5.775619 -2.20819,14.683279 -2.18164,21.201172 0.0201,4.940861 -0.0291,9.879801 -0.0703,14.820311 -0.0342,4.12467 0.38851,8.58966 -1.53321,12.3711 -0.46976,0.9224 -1.25202,1.69103 -2.0664,2.3125 -2.47696,1.88964 -5.54779,3.26748 -8.20899,4.91015 -8.18072,5.05106 -16.44257,9.86478 -24.77148,14.67578 -5.568143,3.21591 -11.45792,7.15216 -17.599609,9.14844 -0.894515,-5.50406 -0.697821,-11.19115 -0.6875,-16.75 0.01268,-7.06009 0.02813,-14.11804 0.0039,-21.17773 -0.01415,-4.10367 -0.05578,-8.21556 -0.130859,-12.31836 -0.0523,-2.86077 -0.369856,-6.212505 0.412109,-8.99805 0.656542,-2.338792 2.156223,-4.108856 4.048828,-5.5625 1.73041,-1.329186 3.885236,-2.389507 5.777344,-3.490235 4.603642,-2.678117 9.311607,-5.128887 13.927737,-7.773437 15.06139,-8.6284 30.06118,-17.372995 45.17187,-25.916016 l -0.86718,-1.021484 c -1.50712,-1.70729 -3.30198,-3.383953 -5.30664,-4.669922 z"
       transform="translate(0.03357484,-0.03003928)" />
  </g>
</svg>
