<?xml version="1.0" encoding="UTF-8" standalone="no"?>
<!-- Created with Inkscape (http://www.inkscape.org/) -->

<svg
   width="700"
   height="240"
   viewBox="0 0 185.20833 63.500001"
   version="1.1"
   id="svg5"
   xmlns="http://www.w3.org/2000/svg"
   xmlns:svg="http://www.w3.org/2000/svg">
  <defs
     id="defs2" />
  <g
     id="layer1">
    <g
       aria-label="WATSON
CONSORTIA"
       id="text1024"
       style="font-size:19.05px;line-height:0.9;font-family:'Raconteur NF';-inkscape-font-specification:'Raconteur NF';letter-spacing:0px;word-spacing:0px;stroke-width:5.29167">
      <path
         d="M 14.360484,24.055362 V 11.930521 h 5.195032 V 24.055362 Z M 10.030516,30.98052 7.4353256,28.38533 V 11.930521 h 5.1950314 v 13.854968 h 8.655285 V 11.930521 h 5.199683 V 28.38533 l -2.599841,2.59519 z"
         style="fill:#ffbc00"
         id="path36224" />
      <path
         d="M 28.234055,30.98052 V 18.86033 H 42.084371 V 17.130203 H 28.234055 v -2.599841 l 2.59519,-2.599841 h 13.854968 l 2.599841,2.599841 V 30.98052 h -5.199683 v -6.925158 h -8.655285 v 6.925158 z"
         style="font-family:'Bloc Tek';-inkscape-font-specification:'Bloc Tek'"
         id="path36226" />
      <path
         d="M 55.957942,30.98052 V 18.86033 h 5.195031 V 30.98052 Z M 49.032784,17.130203 v -5.199682 h 19.049999 v 5.199682 z"
         style="font-family:'Bloc Tek';-inkscape-font-specification:'Bloc Tek'"
         id="path36228" />
      <path
         d="M 69.831512,30.98052 V 25.785489 H 83.681829 V 24.055362 H 72.426703 L 69.831512,21.455521 V 18.86033 H 86.28167 l 2.599842,2.595191 v 6.929809 l -2.599842,2.59519 z m 0,-13.850317 v -2.599841 l 2.595191,-2.599841 h 16.454809 v 5.199682 z"
         style="font-family:'Bloc Tek';-inkscape-font-specification:'Bloc Tek'"
         id="path36230" />
      <path
         d="m 104.48056,25.785489 v -8.655286 h -8.655287 v 8.655286 z M 93.225432,30.98052 90.630241,28.38533 V 14.530362 l 2.595191,-2.599841 H 107.0804 l 2.59984,2.599841 V 28.38533 l -2.59984,2.59519 z"
         style="font-family:'Bloc Tek';-inkscape-font-specification:'Bloc Tek'"
         id="path36232" />
      <path
         d="M 111.42897,30.98052 V 11.930521 h 5.19503 l 8.65529,8.659936 v -8.659936 h 5.19968 V 30.98052 h -5.19968 V 28.38533 L 116.624,19.725394 V 30.98052 Z"
         style="font-family:'Bloc Tek';-inkscape-font-specification:'Bloc Tek'"
         id="path36234" />
      <path
         d="M 10.030516,52.888019 7.4353256,50.292829 V 36.437861 L 10.030516,33.83802 h 13.854968 l 2.599841,2.599841 v 5.195031 h -5.199683 v -2.59519 h -8.655285 v 8.655285 h 8.655285 v -2.59519 h 5.199683 v 5.195032 l -2.599841,2.59519 z"
         style="fill:#ffbc00"
         id="path36236" />
      <path
         d="m 42.084371,47.692987 v -8.655285 h -8.655285 v 8.655285 z m -11.255126,5.195032 -2.59519,-2.59519 V 36.437861 l 2.59519,-2.599841 h 13.854968 l 2.599841,2.599841 v 13.854968 l -2.599841,2.59519 z"
         style="font-family:'Bloc Tek';-inkscape-font-specification:'Bloc Tek'"
         id="path36238" />
      <path
         d="M 49.032784,52.888019 V 33.83802 h 5.195031 L 62.8831,42.497956 V 33.83802 h 5.199683 V 52.888019 H 62.8831 v -2.59519 l -8.655285,-8.659937 v 11.255127 z"
         style="font-family:'Bloc Tek';-inkscape-font-specification:'Bloc Tek'"
         id="path36240" />
      <path
         d="M 69.831512,52.888019 V 47.692987 H 83.681829 V 45.962861 H 72.426703 l -2.595191,-2.599842 v -2.59519 H 86.28167 l 2.599842,2.59519 v 6.92981 l -2.599842,2.59519 z m 0,-13.850317 v -2.599841 l 2.595191,-2.599841 h 16.454809 v 5.199682 z"
         style="font-family:'Bloc Tek';-inkscape-font-specification:'Bloc Tek'"
         id="path36242" />
      <path
         d="m 104.48056,47.692987 v -8.655285 h -8.655287 v 8.655285 z m -11.255128,5.195032 -2.595191,-2.59519 V 36.437861 L 93.225432,33.83802 H 107.0804 l 2.59984,2.599841 v 13.854968 l -2.59984,2.59519 z"
         style="font-family:'Bloc Tek';-inkscape-font-specification:'Bloc Tek'"
         id="path36244" />
      <path
         d="m 111.42897,52.888019 v -12.12019 h 5.19503 v 12.12019 z m 13.85032,0 v -5.195032 l -1.73013,-1.730126 h -5.19503 v -5.195032 h 6.92516 V 39.037702 H 111.42897 V 33.83802 h 16.45016 l 2.59984,2.599841 v 5.195031 l -1.73478,1.730127 1.73478,1.734778 v 7.790222 z"
         style="font-family:'Bloc Tek';-inkscape-font-specification:'Bloc Tek'"
         id="path36246" />
      <path
         d="m 139.15286,52.888019 v -12.12019 h 5.19503 v 12.12019 z M 132.2277,39.037702 V 33.83802 h 19.05 v 5.199682 z"
         style="font-family:'Bloc Tek';-inkscape-font-specification:'Bloc Tek'"
         id="path36248" />
      <path
         d="m 153.02642,52.888019 v -12.12019 h 5.19503 v 12.12019 z m 0,-13.850317 V 33.83802 h 5.19503 v 5.199682 z"
         style="font-family:'Bloc Tek';-inkscape-font-specification:'Bloc Tek'"
         id="path36250" />
      <path
         d="m 159.94694,52.888019 v -12.12019 h 13.85031 v -1.730127 h -13.85031 v -2.599841 l 2.59519,-2.599841 h 13.85497 l 2.59984,2.599841 v 16.450158 h -5.19969 v -6.925158 h -8.65528 v 6.925158 z"
         style="font-family:'Bloc Tek';-inkscape-font-specification:'Bloc Tek'"
         id="path36252" />
    </g>
    <g
       id="text56370"
       style="font-size:19.05px;line-height:1.25;font-family:'Raconteur NF';-inkscape-font-specification:'Raconteur NF';stroke-width:0.264583" />
    <g
       id="text103970"
       style="font-size:19.05px;line-height:1.25;font-family:'Raconteur NF';-inkscape-font-specification:'Raconteur NF';stroke-width:0.264583" />
    <g
       transform="scale(0.99820502,1.0017982)"
       id="text115618-6"
       style="font-size:35.1468px;line-height:1.25;font-family:'Raconteur NF';-inkscape-font-specification:'Raconteur NF';fill:#ffc600;stroke-width:0.234311" />
  </g>
</svg>
