<?xml version="1.0" encoding="UTF-8" standalone="no"?>
<!-- Created with Inkscape (http://www.inkscape.org/) -->

<svg
   width="200"
   height="200"
   viewBox="0 0 52.916666 52.916668"
   version="1.1"
   id="svg33977"
   xmlns="http://www.w3.org/2000/svg"
   xmlns:svg="http://www.w3.org/2000/svg">
  <defs
     id="defs33974" />
  <g
     id="layer1">
    <g
       aria-label="W"
       id="text170596"
       style="font-size:19.05px;line-height:1.25;font-family:'Raconteur NF';-inkscape-font-specification:'Raconteur NF';stroke-width:0.264583">
      <path
         d="M 13.870236,19.328609 V 7.2037678 h 5.195032 V 19.328609 Z M 9.5402682,26.253767 6.9450779,23.658577 V 7.2037678 H 12.140109 V 21.058735 h 8.655286 V 7.2037678 h 5.199682 V 23.658577 l -2.599841,2.59519 z"
         style="font-family:'Bloc Tek';-inkscape-font-specification:'Bloc Tek';fill:#ffbc00"
         id="path34142" />
    </g>
    <g
       aria-label="C"
       id="text175924"
       style="font-size:19.05px;line-height:1.25;font-family:'Raconteur NF';-inkscape-font-specification:'Raconteur NF';stroke-width:0.264583">
      <path
         d="m 30.815735,47.931515 -2.59519,-2.595191 V 31.481357 l 2.59519,-2.599841 h 13.854968 l 2.599841,2.599841 v 5.195031 h -5.199682 v -2.59519 h -8.655286 v 8.655285 h 8.655286 v -2.59519 h 5.199682 v 5.195031 l -2.599841,2.595191 z"
         style="font-family:'Bloc Tek';-inkscape-font-specification:'Bloc Tek';fill:#ffbc00"
         id="path34139" />
    </g>
    <g
       aria-label="O"
       id="text5990"
       style="font-size:19.05px;line-height:1.25;font-family:'Bloc Tek';-inkscape-font-specification:'Bloc Tek';stroke-width:0.264583">
      <path
         d="m 41.982452,21.07491 v -8.655285 h -8.655285 v 8.655285 z m -11.255126,5.195031 -2.595191,-2.59519 V 9.8197833 l 2.595191,-2.5998412 h 13.854967 l 2.599842,2.5998412 V 23.674751 l -2.599842,2.59519 z"
         id="path34136" />
    </g>
    <g
       aria-label="O"
       id="text5990-7"
       style="font-size:19.05px;line-height:1.25;font-family:'Bloc Tek';-inkscape-font-specification:'Bloc Tek';stroke-width:0.264583">
      <path
         d="m 21.188362,42.165965 v -8.655286 h -8.655285 v 8.655286 z M 9.9332354,47.360996 7.3380451,44.765806 V 30.910838 L 9.9332354,28.310997 H 23.788203 l 2.599841,2.599841 v 13.854968 l -2.599841,2.59519 z"
         id="path34133" />
    </g>
    <g
       aria-label="⚙"
       id="text8239"
       style="font-size:39.6875px;line-height:1.25;font-family:'Raconteur NF';-inkscape-font-specification:'Raconteur NF';fill:#666666;stroke-width:0.264583">
      <path
         d="m 31.539026,20.739874 q -0.639496,-1.007691 -0.968933,-2.17041 h -3.740082 v -3.643189 h 3.701325 q 0.155029,-0.600738 0.387573,-1.143341 0.232544,-0.561981 0.561981,-1.065826 l -2.538604,-2.538605 2.577362,-2.577362 2.577362,2.596741 Q 34.581476,9.9265804 35.1047,9.7134151 35.627924,9.5002499 36.189905,9.3839779 V 5.8570614 h 3.643189 v 3.6044311 q 0.561981,0.1550293 1.065826,0.4069519 0.503845,0.2325436 0.968933,0.5426026 l 2.596741,-2.5967407 2.577362,2.5773617 -2.674255,2.674256 q 0.232544,0.445709 0.406951,0.910797 0.193787,0.445709 0.310059,0.949554 h 3.410645 v 3.643189 h -3.449402 q -0.116272,0.503845 -0.310059,0.949554 -0.193786,0.445709 -0.445709,0.87204 l 2.557983,2.538605 -2.577362,2.577362 -2.499847,-2.499848 q -0.910797,0.58136 -1.937866,0.87204 v 3.643189 H 36.189905 V 23.97611 Q 35.1047,23.724188 34.213282,23.220343 l -2.499848,2.499847 -2.577362,-2.577362 z m 3.526917,-3.992005 q 0,0.620118 0.232544,1.16272 0.232544,0.523224 0.620117,0.930176 0.406952,0.387573 0.930176,0.620117 0.542602,0.232544 1.162719,0.232544 0.600739,0 1.143341,-0.232544 0.542603,-0.232544 0.930176,-0.620117 0.406952,-0.406952 0.639496,-0.930176 0.232544,-0.542602 0.232544,-1.16272 0,-0.600738 -0.232544,-1.143341 -0.232544,-0.542602 -0.639496,-0.930175 -0.387573,-0.406952 -0.930176,-0.639496 -0.542602,-0.232544 -1.143341,-0.232544 -0.620117,0 -1.162719,0.232544 -0.523224,0.232544 -0.930176,0.639496 -0.387573,0.387573 -0.620117,0.930175 -0.232544,0.542603 -0.232544,1.143341 z"
         id="path34130" />
    </g>
    <g
       aria-label="⚙"
       id="text8239-9"
       style="font-size:39.6875px;line-height:1.25;font-family:'Raconteur NF';-inkscape-font-specification:'Raconteur NF';fill:#666666;stroke-width:0.264583">
      <path
         d="m 10.739389,41.886135 q -0.639495,-1.00769 -0.9689327,-2.17041 H 6.0303745 V 36.072536 H 9.731699 q 0.1550293,-0.600738 0.387573,-1.143341 0.232544,-0.561981 0.561981,-1.065826 l -2.5386043,-2.538605 2.5773623,-2.577362 2.577362,2.596741 q 0.484466,-0.271301 1.00769,-0.484467 0.523224,-0.213165 1.085205,-0.329437 v -3.526916 h 3.643189 v 3.604431 q 0.561981,0.155029 1.065826,0.406952 0.503845,0.232544 0.968933,0.542602 l 2.596741,-2.596741 2.577362,2.577363 -2.674255,2.674255 q 0.232544,0.445709 0.406952,0.910797 0.193786,0.445709 0.310058,0.949554 h 3.410645 v 3.643189 h -3.449402 q -0.116272,0.503845 -0.310059,0.949554 -0.193786,0.44571 -0.445709,0.87204 l 2.557983,2.538605 -2.577362,2.577362 -2.499847,-2.499847 q -0.910797,0.581359 -1.937866,0.872039 v 3.643189 h -3.643189 v -3.546295 q -1.085205,-0.251923 -1.976623,-0.755768 l -2.499848,2.499847 -2.5773617,-2.577362 z m 3.526917,-3.992004 q 0,0.620117 0.232544,1.162719 0.232544,0.523224 0.620117,0.930176 0.406952,0.387573 0.930176,0.620117 0.542602,0.232544 1.16272,0.232544 0.600738,0 1.143341,-0.232544 0.542602,-0.232544 0.930175,-0.620117 0.406952,-0.406952 0.639496,-0.930176 0.232544,-0.542602 0.232544,-1.162719 0,-0.600739 -0.232544,-1.143341 -0.232544,-0.542603 -0.639496,-0.930176 -0.387573,-0.406952 -0.930175,-0.639496 -0.542603,-0.232544 -1.143341,-0.232544 -0.620118,0 -1.16272,0.232544 -0.523224,0.232544 -0.930176,0.639496 -0.387573,0.387573 -0.620117,0.930176 -0.232544,0.542602 -0.232544,1.143341 z"
         id="path34127" />
    </g>
  </g>
</svg>
